<?xml version="1.0" encoding="utf-8"?>
<svg xmlns="http://www.w3.org/2000/svg" xmlns:xlink="http://www.w3.org/1999/xlink">
    <symbol xml:space="preserve" viewBox="0 0 392.533 392.533" id="curriculum" xmlns="http://www.w3.org/2000/svg">
        <path
            d="M292.396 324.849H99.879c-6.012 0-10.925 4.848-10.925 10.925 0 6.012 4.849 10.925 10.925 10.925h192.582c6.012 0 10.925-4.849 10.925-10.925-.065-6.077-4.913-10.925-10.99-10.925m0-47.839H99.879c-6.012 0-10.925 4.848-10.925 10.925 0 6.012 4.849 10.925 10.925 10.925h192.582c6.012 0 10.925-4.849 10.925-10.925-.065-6.076-4.913-10.925-10.99-10.925M196.137 45.834c-25.859 0-46.998 21.075-46.998 46.998 0 25.859 21.139 46.933 46.998 46.933s46.998-21.075 46.998-46.998-21.139-46.933-46.998-46.933m0 72.017c-13.77 0-25.083-11.313-25.083-25.083s11.248-25.083 25.083-25.083 25.083 11.313 25.083 25.083-11.313 25.083-25.083 25.083m62.384 45.511c-39.887-15.515-84.752-15.515-124.638 0-13.059 5.107-21.786 18.101-21.786 32.388v44.347c-.065 6.012 4.849 10.925 10.861 10.925h146.424c6.012 0 10.925-4.848 10.925-10.925V195.75c0-14.287-8.727-27.281-21.786-32.388m0 65.874H133.883v-33.422c0-5.301 3.168-10.214 7.887-12.024 34.844-13.511 74.02-13.511 108.865 0 4.719 1.875 7.887 6.659 7.887 12.024z" />
        <path
            d="M313.083 0H131.491c-8.404 0-16.291 3.232-22.238 9.18L57.018 61.414c-5.947 5.948-9.18 13.834-9.18 22.238v277.333c0 17.39 14.158 31.547 31.547 31.547h233.762c17.39 0 31.547-14.158 31.547-31.547V31.547C344.501 14.158 330.343 0 313.083 0M112.032 37.236v27.022H85.01zm210.683 79.58h-40.598c-6.012 0-10.925 4.849-10.925 10.925 0 6.012 4.848 10.925 10.925 10.925h40.598v19.394h-14.869c-6.012 0-10.925 4.848-10.925 10.925 0 6.012 4.849 10.925 10.925 10.925h14.869v181.139c0 5.366-4.331 9.697-9.632 9.697H79.192c-5.301 0-9.632-4.331-9.632-9.632V86.044h53.398c6.012 0 10.925-4.848 10.925-10.925V21.721h179.2c5.301 0 9.632 4.331 9.632 9.632z" />
    </symbol>
    <symbol fill="none" viewBox="0 0 16 16" id="github" xmlns="http://www.w3.org/2000/svg">
        <path fill="#161514" fill-rule="evenodd"
            d="M8 1C4.133 1 1 4.13 1 7.993c0 3.09 2.006 5.71 4.787 6.635.35.064.478-.152.478-.337 0-.166-.006-.606-.01-1.19-1.947.423-2.357-.937-2.357-.937-.319-.808-.778-1.023-.778-1.023-.635-.434.048-.425.048-.425.703.05 1.073.72 1.073.72.624 1.07 1.638.76 2.037.582.063-.452.244-.76.444-.935-1.554-.176-3.188-.776-3.188-3.456 0-.763.273-1.388.72-1.876-.072-.177-.312-.888.07-1.85 0 0 .586-.189 1.924.716A6.7 6.7 0 0 1 8 4.381c.595.003 1.194.08 1.753.236 1.336-.905 1.923-.717 1.923-.717.382.963.142 1.674.07 1.85.448.49.72 1.114.72 1.877 0 2.686-1.638 3.278-3.197 3.45.251.216.475.643.475 1.296 0 .934-.009 1.688-.009 1.918 0 .187.127.404.482.336A7 7 0 0 0 15 7.993 6.997 6.997 0 0 0 8 1"
            clip-rule="evenodd" />
    </symbol>
    <symbol fill="none" viewBox="0 0 16 16" id="linkedin" xmlns="http://www.w3.org/2000/svg">
        <path fill="#0a66c2"
            d="M12.225 12.225h-1.778V9.44c0-.664-.012-1.519-.925-1.519-.926 0-1.068.724-1.068 1.47v2.834H6.676V6.498h1.707v.783h.024c.348-.594.996-.95 1.684-.925 1.802 0 2.135 1.185 2.135 2.728zM4.67 5.715a1.037 1.037 0 0 1-1.032-1.031c0-.566.466-1.032 1.032-1.032s1.031.466 1.032 1.032c0 .566-.466 1.032-1.032 1.032zm.889 6.51h-1.78V6.498h1.78zM13.11 2H2.885A.88.88 0 0 0 2 2.866v10.268a.88.88 0 0 0 .885.866h10.226a.88.88 0 0 0 .889-.866V2.865a.88.88 0 0 0-.889-.864z" />
    </symbol>
</svg>