<?xml version="1.0" encoding="utf-8"?>
<svg xmlns="http://www.w3.org/2000/svg"
    xmlns:xlink="http://www.w3.org/1999/xlink">
    <symbol viewBox="0 0 128 128" id="Axios" xmlns="http://www.w3.org/2000/svg">
        <path fill="#5a29e4"
            d="m34 43.978 27.38-22.913.038 91.495-9.32 7.74-.153-76.091zm62.962 38.345-27.38 22.912-.038-91.495L78.863 6l.154 76.091z" />
    </symbol>
    <symbol viewBox="0 0 24 24" id="GitHub_Actions" xmlns="http://www.w3.org/2000/svg">
        <path
            d="M10.984 13.836a.5.5 0 0 1-.353-.146l-.745-.743a.5.5 0 1 1 .706-.708l.392.391 1.181-1.18a.5.5 0 0 1 .708.707l-1.535 1.533a.5.5 0 0 1-.354.146m9.353-.147 1.534-1.532a.5.5 0 0 0-.707-.707l-1.181 1.18-.392-.391a.5.5 0 1 0-.706.708l.746.743a.497.497 0 0 0 .706-.001M4.527 7.452l2.557-1.585A1 1 0 0 0 7.09 4.17L4.533 2.56A1 1 0 0 0 3 3.406v3.196a1.001 1.001 0 0 0 1.527.85m2.03-2.436L4 6.602V3.406zM24 12.5c0 1.93-1.57 3.5-3.5 3.5a3.5 3.5 0 0 1-3.46-3h-2.08a3.5 3.5 0 0 1-3.46 3 3.5 3.5 0 0 1-3.46-3h-.558c-.972 0-1.85-.399-2.482-1.042V17c0 1.654 1.346 3 3 3h.04c.244-1.693 1.7-3 3.46-3 1.93 0 3.5 1.57 3.5 3.5S13.43 24 11.5 24a3.5 3.5 0 0 1-3.46-3H8c-2.206 0-4-1.794-4-4V9.899A5.01 5.01 0 0 1 0 5c0-2.757 2.243-5 5-5s5 2.243 5 5a5.005 5.005 0 0 1-4.952 4.998A2.48 2.48 0 0 0 7.482 12h.558c.244-1.693 1.7-3 3.46-3a3.5 3.5 0 0 1 3.46 3h2.08a3.5 3.5 0 0 1 3.46-3c1.93 0 3.5 1.57 3.5 3.5m-15 8c0 1.378 1.122 2.5 2.5 2.5s2.5-1.122 2.5-2.5-1.122-2.5-2.5-2.5S9 19.122 9 20.5M5 9c2.206 0 4-1.794 4-4S7.206 1 5 1 1 2.794 1 5s1.794 4 4 4m9 3.5c0-1.378-1.122-2.5-2.5-2.5S9 11.122 9 12.5s1.122 2.5 2.5 2.5 2.5-1.122 2.5-2.5m9 0c0-1.378-1.122-2.5-2.5-2.5S18 11.122 18 12.5s1.122 2.5 2.5 2.5 2.5-1.122 2.5-2.5m-13 8a.5.5 0 1 0 1 0 .5.5 0 0 0-1 0m2 0a.5.5 0 1 0 1 0 .5.5 0 0 0-1 0m12 0c0 1.93-1.57 3.5-3.5 3.5a3.5 3.5 0 0 1-3.46-3.002l-.021.005-.506.017h-.017a.5.5 0 0 1-.016-.999l.506-.017c.018-.002.035.006.052.007A3.5 3.5 0 0 1 20.5 17c1.93 0 3.5 1.57 3.5 3.5m-1 0c0-1.378-1.122-2.5-2.5-2.5S18 19.122 18 20.5s1.122 2.5 2.5 2.5 2.5-1.122 2.5-2.5" />
    </symbol>
    <symbol fill="none" viewBox="0 0 24 24" id="Playwright" xmlns="http://www.w3.org/2000/svg">
        <path fill="#2d4552"
            d="M7.996 13.142c-.877.249-1.453.685-1.832 1.121.363-.317.85-.609 1.506-.795.67-.19 1.243-.189 1.716-.098V13a3.8 3.8 0 0 0-1.39.142m-1.872-3.11-3.258.858s.06.084.17.196l2.762-.728s-.04.505-.38.956c.643-.487.706-1.282.706-1.282m2.727 7.657c-4.585 1.235-7.01-4.079-7.745-6.837C.766 9.58.62 8.615.58 7.993a1 1 0 0 1 .002-.169c-.237.015-.351.138-.328.495.04.622.188 1.586.527 2.86.734 2.757 3.16 8.07 7.745 6.836.998-.27 1.747-.759 2.31-1.384a4.75 4.75 0 0 1-1.984 1.058M9.713 6.78v.326h1.798c-.037-.115-.074-.22-.111-.326z" />
        <path fill="#2d4552"
            d="M11.913 9.467c.809.23 1.236.797 1.462 1.299l.902.256s-.123-1.756-1.711-2.207c-1.486-.423-2.4.825-2.512.987.432-.308 1.063-.56 1.859-.335m7.178 1.307c-1.487-.424-2.402.826-2.511.986.433-.308 1.063-.56 1.859-.334.807.23 1.234.797 1.461 1.299l.903.257s-.125-1.756-1.712-2.208m-.896 4.63-7.501-2.097s.08.412.392.945l6.316 1.766c.52-.301.793-.614.793-.614m-5.2 4.514c-5.94-1.592-5.222-9.16-4.261-12.746.396-1.478.802-2.577 1.14-3.313-.201-.041-.368.065-.533.4-.358.726-.816 1.91-1.26 3.565-.96 3.586-1.679 11.154 4.26 12.747 2.8.75 4.981-.39 6.607-2.18-1.543 1.397-3.513 2.181-5.954 1.527" />
        <path fill="#e2574c"
            d="M9.713 15.915v-1.527l-4.244 1.203s.314-1.822 2.527-2.45c.671-.19 1.244-.188 1.717-.097V6.78h2.124a13 13 0 0 0-.643-1.647c-.31-.633-.63-.214-1.353.391-.51.426-1.798 1.334-3.736 1.857s-3.505.384-4.16.27c-.926-.16-1.41-.363-1.365.342.039.622.187 1.586.526 2.86.735 2.757 3.16 8.07 7.745 6.835 1.198-.322 2.043-.96 2.63-1.773zM2.866 10.89l3.258-.858s-.095 1.253-1.317 1.575-1.941-.717-1.941-.717" />
        <path fill="#2ead33"
            d="M21.975 6.853c-.847.148-2.879.333-5.39-.34-2.512-.673-4.178-1.85-4.839-2.402-.936-.784-1.347-1.33-1.752-.505-.359.727-.817 1.91-1.26 3.566-.96 3.586-1.679 11.154 4.26 12.746 5.938 1.591 9.1-5.322 10.06-8.908.444-1.656.638-2.91.692-3.718.061-.916-.568-.65-1.77-.44M10.042 9.819s.936-1.455 2.523-1.004c1.589.451 1.712 2.207 1.712 2.207zm3.875 6.533c-2.792-.818-3.223-3.045-3.223-3.045l7.501 2.098s-1.514 1.755-4.278.947m2.652-4.576s.935-1.455 2.522-1.002c1.587.452 1.712 2.208 1.712 2.208z" />
        <path fill="#d65348"
            d="m8.23 14.809-2.76.782s.3-1.708 2.333-2.385L6.24 7.34l-.135.04c-1.939.523-3.506.385-4.16.272-.926-.16-1.411-.364-1.366.341.04.622.188 1.586.527 2.86.734 2.757 3.16 8.07 7.745 6.835l.135-.042zM2.866 10.89l3.258-.858s-.095 1.253-1.316 1.575-1.942-.717-1.942-.717" />
        <path fill="#1d8d22"
            d="m14.043 16.383-.126-.031c-2.793-.818-3.223-3.045-3.223-3.045l3.868 1.082 2.048-7.87-.025-.006c-2.512-.673-4.179-1.85-4.839-2.402-.936-.784-1.348-1.33-1.753-.505-.358.727-.816 1.91-1.26 3.566-.96 3.586-1.678 11.154 4.261 12.746l.122.028zm-4.001-6.564s.936-1.455 2.523-1.004c1.589.451 1.712 2.207 1.712 2.207z" />
        <path fill="#c04b41"
            d="m8.37 14.768-.74.21c.175.986.483 1.932.967 2.768.084-.018.168-.034.254-.058.225-.06.433-.136.634-.217-.54-.803-.899-1.727-1.114-2.703m-.289-6.944c-.38 1.42-.72 3.464-.627 5.514.168-.073.345-.14.542-.197l.137-.03c-.167-2.19.194-4.421.601-5.94q.154-.574.31-1.073a10 10 0 0 1-.549.325 28.93 28.93 0 0 0-.414 1.401" />
    </symbol>
    <symbol fill="none" viewBox="0 0 32 32" id="css" xmlns="http://www.w3.org/2000/svg">
        <path fill="#1172b8" d="M6 28 4 3h24l-2 25-10 3z" />
        <path fill="#3ad" d="M26 5H16v24.5l8-2.5z" />
        <path fill="#fff"
            d="M19.5 17.5h-10L9 14l8-2.5H9l-.5-3H24l-.5 3.5-6.5 2.5h6L22 24l-6 2-6-2-.5-5h3l.5 2.5 3 1 3-1z" />
    </symbol>
    <symbol fill="none" viewBox="0 0 16 16" id="ec2" xmlns="http://www.w3.org/2000/svg">
        <path fill="#9d5025" d="M1.702 2.98 1 3.312v9.376l.702.332 2.842-4.777z" />
        <path fill="#f58536" d="m3.339 12.657-1.637.363V2.98l1.637.353z" />
        <path fill="#9d5025" d="m2.476 2.612.863-.406 4.096 6.216-4.096 5.372-.863-.406z" />
        <path fill="#f58536" d="m5.38 13.248-2.041.546V2.206l2.04.548v10.494z" />
        <path fill="#9d5025" d="m4.3 1.75 1.08-.512 6.043 7.864-6.043 5.66-1.08-.511z" />
        <path fill="#f58536" d="m7.998 13.856-2.618.906V1.238l2.618.908z" />
        <path fill="#9d5025" d="M6.602.66 7.998 0l6.538 8.453L7.998 16l-1.396-.66z" />
        <path fill="#f58536" d="M15 12.686 7.998 16V0L15 3.314z" />
    </symbol>
    <symbol viewBox="0 0 32 32" id="eslint" xmlns="http://www.w3.org/2000/svg">
        <path
            d="m29.832 16.7-6.354 10.717A1.26 1.26 0 0 1 22.36 28H9.647a1.26 1.26 0 0 1-1.118-.59l-6.356-10.7a1.26 1.26 0 0 1 0-1.272L8.527 4.676A1.34 1.34 0 0 1 9.647 4h12.709a1.34 1.34 0 0 1 1.118.678l6.354 10.786a1.2 1.2 0 0 1 0 1.238Zm-5.262 4.2v-9.614L16 6.466l-8.56 4.82V20.9L16 25.719Z"
            style="fill:#4b32c3" />
        <path d="m21.802 19.188-5.747 3.235-5.742-3.235v-6.47l5.742-3.236 5.747 3.236z" style="fill:#8080f2" />
    </symbol>
    <symbol viewBox="0 0 128 128" id="material_ui" xmlns="http://www.w3.org/2000/svg">
        <path fill="#1fa6ca" d="M.2 68.6V13.4L48 41v18.4L16.1 41v36.8z" />
        <path fill="#1c7fb6" d="m48 41 47.9-27.6v55.3L64 87l-16-9.2 32-18.4V41L48 59.4z" />
        <path fill="#1fa6ca" d="M48 77.8v18.4l32 18.4V96.2z" />
        <path fill="#1c7fb6" d="M80 114.6 127.8 87V50.2l-16 9.2v18.4L80 96.2zM111.9 41V22.6l16-9.2v18.4z" />
    </symbol>
    <symbol viewBox="0 0 32 32" id="mongo" xmlns="http://www.w3.org/2000/svg">
        <defs>
            <linearGradient id="ga" x1="-645.732" x2="-654.59" y1="839.188" y2="839.25"
                gradientTransform="matrix(-.977 -.323 -.29 .877 -375.944 -928.287)" gradientUnits="userSpaceOnUse">
                <stop offset=".231" stop-color="#999875" />
                <stop offset=".563" stop-color="#9b9977" />
                <stop offset=".683" stop-color="#a09f7e" />
                <stop offset=".768" stop-color="#a9a889" />
                <stop offset=".837" stop-color="#b7b69a" />
                <stop offset=".896" stop-color="#c9c7b0" />
                <stop offset=".948" stop-color="#deddcb" />
                <stop offset=".994" stop-color="#f8f6eb" />
                <stop offset="1" stop-color="#fbf9ef" />
            </linearGradient>
            <linearGradient id="gb" x1="-644.287" x2="-657.028" y1="823.405" y2="845.476"
                gradientTransform="matrix(-.977 -.323 -.29 .877 -375.944 -928.287)" gradientUnits="userSpaceOnUse">
                <stop offset="0" stop-color="#48a547" />
                <stop offset="1" stop-color="#3f9143" />
            </linearGradient>
            <linearGradient id="gc" x1="-643.386" x2="-652.418" y1="839.485" y2="833.417"
                gradientTransform="matrix(-.977 -.323 -.29 .877 -375.944 -928.287)" gradientUnits="userSpaceOnUse">
                <stop offset="0" stop-color="#41a247" />
                <stop offset=".352" stop-color="#4ba74b" />
                <stop offset=".956" stop-color="#67b554" />
                <stop offset="1" stop-color="#69b655" />
            </linearGradient>
        </defs>
        <path
            d="m16.62 30-.751-.249s.1-3.8-1.275-4.067c-.9-1.048.133-44.741 3.423-.149a2.7 2.7 0 0 0-1.333 1.523A14 14 0 0 0 16.62 30"
            style="fill:url(#ga)" />
        <path
            d="M17.026 26.329a13.22 13.22 0 0 0 5-13.225c-1.47-6.485-4.951-8.617-5.326-9.431a10 10 0 0 1-.825-1.6l.277 18.069s-.574 5.522.874 6.187"
            style="fill:url(#gb)" />
        <path
            d="M15.487 26.569S9.366 22.4 9.72 15.025a15.54 15.54 0 0 1 5.519-11.648A1.73 1.73 0 0 0 15.846 2c.381.82.319 12.243.359 13.579.155 5.197-.289 10.009-.718 10.99"
            style="fill:url(#gc)" />
    </symbol>
    <symbol viewBox="0 0 24 24" id="mysql" xmlns="http://www.w3.org/2000/svg">
        <path
            d="m24.129 23.412-.508-.484a6.7 6.7 0 0 0-.809-.891l-.005-.004q-.448-.407-.931-.774-.387-.266-1.064-.641a1.6 1.6 0 0 1-.818-.824l-.004-.01-.048-.024c.212-.021.406-.06.592-.115l-.023.006.57-.157c.236-.074.509-.122.792-.133h.006q.446-.02.847-.139l-.025.006q.194-.048.399-.109t.351-.109v-.169q-.145-.217-.351-.496a2.6 2.6 0 0 0-.443-.468l-.005-.004q-.629-.556-1.303-1.076a16 16 0 0 0-1.311-.916l-.068-.04a5 5 0 0 0-.825-.435l-.034-.012q-.448-.182-.883-.399a1.6 1.6 0 0 0-.327-.119l-.011-.002a.5.5 0 0 1-.29-.169l-.001-.001a3 3 0 0 1-.355-.609l-.008-.02q-.145-.339-.314-.651-.363-.702-.702-1.427t-.651-1.452q-.217-.484-.399-.967a5.4 5.4 0 0 0-.461-.942l.013.023a17 17 0 0 0-1.331-1.961l.028.038a14.6 14.6 0 0 0-1.459-1.59l-.008-.007a18 18 0 0 0-1.632-1.356l-.049-.035q-.896-.651-1.96-1.282a3.7 3.7 0 0 0-.965-.393l-.026-.006-1.113-.278-.629-.048q-.314-.024-.629-.024a1.7 1.7 0 0 1-.387-.279 4 4 0 0 0-.353-.295l-.01-.007a11.7 11.7 0 0 0-2.043-.93L2.071.18A1.355 1.355 0 0 0 .9.096L.909.093a1.36 1.36 0 0 0-.795.84l-.003.01a1.515 1.515 0 0 0 .232 1.549l-.002-.003q.544.725.834 1.14.217.291.448.605c.141.188.266.403.367.63l.008.021c.056.119.105.261.141.407l.003.016q.048.206.121.448.217.556.411 1.14c.141.425.297.785.478 1.128l-.019-.04q.145.266.291.52T3.738 9a.9.9 0 0 0 .241.242l.003.002a.4.4 0 0 1 .169.313v.001a1.3 1.3 0 0 0-.217.586l-.001.006a4 4 0 0 1-.153.695l.008-.03a7.1 7.1 0 0 0-.351 2.231q0 .387.04.763l-.003-.031c.06.958.349 1.838.812 2.6l-.014-.025c.197.295.408.552.641.787a.914.914 0 0 0 1.106.203l-.005.002a.93.93 0 0 0 .617-.827v-.002c.048-.474.12-.898.219-1.312l-.013.067a.6.6 0 0 0 .038-.211l-.002-.045v.002q-.012-.109.133-.206v.048q.145.339.302.677t.326.677c.295.449.608.841.952 1.202l-.003-.003a7.7 7.7 0 0 0 1.127 1.001l.022.015c.212.162.398.337.566.528l.004.004q.239.28.56.454l.01.005v-.024h.048a.46.46 0 0 0-.18-.205l-.002-.001a2 2 0 0 1-.211-.136l.005.003q-.217-.217-.448-.484t-.423-.508q-.508-.702-.969-1.467t-.871-1.555q-.194-.387-.375-.798t-.351-.798a1 1 0 0 1-.096-.334v-.005a.32.32 0 0 0-.168-.265l-.002-.001a3 3 0 0 1-.408.545l.001-.001a2 2 0 0 0-.382.58l-.005.013a4.3 4.3 0 0 0-.289 1.154l-.002.019q-.072.641-.145 1.318l-.048.024-.024.024a.86.86 0 0 1-.59-.443l-.002-.005q-.182-.351-.326-.69a6.5 6.5 0 0 1-.423-2.144v-.009a6.218 6.218 0 0 1 .286-2.318l-.012.044q.072-.266.314-.896t.097-.871a.9.9 0 0 0-.265-.41l-.001-.001a3 3 0 0 1-.335-.335l-.003-.004q-.169-.244-.326-.52t-.278-.544a11 11 0 0 1-.474-1.353l-.022-.089a10 10 0 0 0-.546-1.503l.026.064a3.3 3.3 0 0 0-.39-.669l.006.008q-.244-.326-.436-.617-.244-.314-.484-.605a3.4 3.4 0 0 1-.426-.657l-.009-.02a1.6 1.6 0 0 1-.119-.327l-.002-.011a.406.406 0 0 1 .049-.34l-.001.002a.3.3 0 0 1 .073-.145.3.3 0 0 1 .143-.072h.002a.55.55 0 0 1 .536-.035l-.003-.001c.219.062.396.124.569.195l-.036-.013q.459.194.847.375c.298.142.552.292.792.459l-.018-.012q.194.121.387.266t.411.291h.339q.387 0 .822.037c.293.023.564.078.822.164l-.024-.007c.481.143.894.312 1.286.515l-.041-.019q.593.302 1.125.641c.589.367 1.098.743 1.577 1.154l-.017-.014c.5.428.954.867 1.38 1.331l.01.012c.416.454.813.947 1.176 1.464l.031.047c.334.472.671 1.018.974 1.584l.042.085a5 5 0 0 1 .234.536l.011.033q.097.278.217.57.266.605.57 1.221t.57 1.198l.532 1.161c.187.406.396.756.639 1.079l-.011-.015c.203.217.474.369.778.422l.008.001c.368.092.678.196.978.319l-.047-.017c.143.065.327.134.516.195l.04.011c.212.065.396.151.565.259l-.009-.005c.327.183.604.363.868.559l-.021-.015q.411.302.822.57.194.145.651.423t.484.52a11 11 0 0 0-1.834.087l.056-.006a6 6 0 0 0-1.479.39l.04-.014a2.6 2.6 0 0 1-.388.129l-.019.004a.31.31 0 0 0-.266.277v.001q.093.115.143.26l.002.006q.05.151.125.272l-.003-.006c.119.211.247.393.391.561l-.004-.005q.212.26.476.454l.007.005q.244.194.508.399c.161.126.343.25.532.362l.024.013c.284.174.614.34.958.479l.046.016c.374.15.695.324.993.531l-.016-.011q.291.169.58.375t.556.399q.11.108.191.239l.003.005a.57.57 0 0 0 .36.193h.003v-.048a.5.5 0 0 1-.184-.267l-.001-.004a1 1 0 0 0-.112-.273l.002.004zM5.553 4.207q-.194 0-.363.012a1.3 1.3 0 0 0-.323.063l.009-.003v.024h.048q.097.145.244.326t.266.351l.387.798.048-.024a.74.74 0 0 0 .252-.321l.002-.005c.052-.139.082-.301.082-.469l-.001-.054v.003a.5.5 0 0 1-.108-.154l-.001-.003-.081-.182a.5.5 0 0 0-.214-.192l-.003-.001a1 1 0 0 1-.244-.169" />
    </symbol>
    <symbol preserveAspectRatio="xMidYMid" viewBox="-16.5 0 289 289" id="nodejs" xmlns="http://www.w3.org/2000/svg">
        <path fill="#539e43"
            d="M128 288.464c-3.975 0-7.685-1.06-11.13-2.915l-35.247-20.936c-5.3-2.915-2.65-3.975-1.06-4.505 7.155-2.385 8.48-2.915 15.9-7.156.796-.53 1.856-.265 2.65.265l27.032 16.166c1.06.53 2.385.53 3.18 0l105.74-61.217c1.06-.53 1.59-1.59 1.59-2.915V83.08c0-1.325-.53-2.385-1.59-2.915l-105.74-60.953c-1.06-.53-2.385-.53-3.18 0L20.405 80.166c-1.06.53-1.59 1.855-1.59 2.915v122.17c0 1.06.53 2.385 1.59 2.915l28.887 16.695c15.636 7.95 25.44-1.325 25.44-10.6V93.68c0-1.59 1.326-3.18 3.181-3.18h13.516c1.59 0 3.18 1.325 3.18 3.18v120.58c0 20.936-11.396 33.126-31.272 33.126-6.095 0-10.865 0-24.38-6.625l-27.827-15.9C4.24 220.885 0 213.465 0 205.515V83.346C0 75.396 4.24 67.976 11.13 64L116.87 2.783c6.625-3.71 15.635-3.71 22.26 0L244.87 64C251.76 67.975 256 75.395 256 83.346v122.17c0 7.95-4.24 15.37-11.13 19.345L139.13 286.08c-3.445 1.59-7.42 2.385-11.13 2.385m32.596-84.009c-46.377 0-55.917-21.2-55.917-39.221 0-1.59 1.325-3.18 3.18-3.18h13.78c1.59 0 2.916 1.06 2.916 2.65 2.12 14.045 8.215 20.936 36.306 20.936 22.261 0 31.802-5.035 31.802-16.96 0-6.891-2.65-11.926-37.367-15.372-28.886-2.915-46.907-9.275-46.907-32.33 0-21.467 18.02-34.187 48.232-34.187 33.921 0 50.617 11.66 52.737 37.101q0 1.193-.795 2.385c-.53.53-1.325 1.06-2.12 1.06h-13.78c-1.326 0-2.65-1.06-2.916-2.385-3.18-14.575-11.395-19.345-33.126-19.345-24.38 0-27.296 8.48-27.296 14.84 0 7.686 3.445 10.07 36.306 14.31 32.597 4.24 47.967 10.336 47.967 33.127-.265 23.321-19.345 36.571-53.002 36.571" />
    </symbol>
    <symbol viewBox="0 0 32 32" id="prettier" xmlns="http://www.w3.org/2000/svg">
        <g data-name="Icon-(Light)">
            <path
                d="M21.714 8.571h1.143a.57.57 0 0 1 .571.571.57.57 0 0 1-.571.571h-1.143a.57.57 0 0 1-.571-.571.57.57 0 0 1 .571-.571"
                style="fill:#56b3b4" />
            <path
                d="M4.571 26.857h5.714a.57.57 0 0 1 .571.571.57.57 0 0 1-.571.571H4.571a.57.57 0 0 1-.571-.57.57.57 0 0 1 .571-.572"
                data-name="Rectangle" style="fill:#ea5e5e" />
            <path
                d="M18.286 17.714h3.429a.57.57 0 0 1 .571.571.57.57 0 0 1-.571.571h-3.429a.57.57 0 0 1-.571-.571.57.57 0 0 1 .571-.571"
                data-name="Rectangle" style="fill:#bf85bf" />
            <path
                d="M11.429 17.714H16a.57.57 0 0 1 .571.571.57.57 0 0 1-.571.571h-4.571a.57.57 0 0 1-.571-.571.57.57 0 0 1 .571-.571"
                data-name="Rectangle" style="fill:#ea5e5e" />
            <path
                d="M4.571 17.714h4.572a.57.57 0 0 1 .571.571.57.57 0 0 1-.571.571H4.571a.57.57 0 0 1-.571-.57.57.57 0 0 1 .571-.572"
                data-name="Rectangle" style="fill:#56b3b4" />
            <path
                d="M4.571 22.286h5.714a.57.57 0 0 1 .571.571.57.57 0 0 1-.571.571H4.571A.57.57 0 0 1 4 22.857a.57.57 0 0 1 .571-.571m0-9.143h5.714a.57.57 0 0 1 .571.571.57.57 0 0 1-.571.571H4.571A.57.57 0 0 1 4 13.714a.57.57 0 0 1 .571-.571"
                data-name="Rectangle" style="fill:#bf85bf" />
            <path
                d="M10.286 6.286h11.428a.57.57 0 0 1 .571.571.57.57 0 0 1-.571.571H10.286a.57.57 0 0 1-.571-.571.57.57 0 0 1 .571-.571"
                data-name="Rectangle" style="fill:#f7ba3e" />
            <path
                d="M4.571 6.286H8a.57.57 0 0 1 .571.571.57.57 0 0 1-.571.572H4.571A.57.57 0 0 1 4 6.857a.57.57 0 0 1 .571-.571"
                data-name="Rectangle" style="fill:#ea5e5e" />
            <path
                d="M9.143 24.571h1.143a.57.57 0 0 1 .571.571.57.57 0 0 1-.571.571H9.143a.57.57 0 0 1-.571-.571.57.57 0 0 1 .571-.571"
                data-name="Rectangle" style="fill:#f7ba3e" />
            <path
                d="M9.143 10.857h1.143a.57.57 0 0 1 .571.571.57.57 0 0 1-.571.571H9.143a.57.57 0 0 1-.571-.571.57.57 0 0 1 .571-.571M4.571 24.571h2.286a.57.57 0 0 1 .571.571.57.57 0 0 1-.571.571H4.571a.57.57 0 0 1-.571-.57.57.57 0 0 1 .571-.572"
                data-name="Rectangle" style="fill:#56b3b4" />
            <path
                d="M4.571 10.857h2.286a.57.57 0 0 1 .571.571.57.57 0 0 1-.571.572H4.571A.57.57 0 0 1 4 11.429a.57.57 0 0 1 .571-.572"
                data-name="Rectangle" style="fill:#f7ba3e" />
            <path
                d="M19.429 24.571h1.143a.57.57 0 0 1 .571.571.57.57 0 0 1-.571.571h-1.143a.57.57 0 0 1-.571-.571.57.57 0 0 1 .571-.571m-6.858 0h4.571a.57.57 0 0 1 .571.571.57.57 0 0 1-.571.571h-4.571a.57.57 0 0 1-.571-.57.57.57 0 0 1 .571-.572m10.286 0h4.571a.57.57 0 0 1 .571.571.57.57 0 0 1-.571.571h-4.571a.57.57 0 0 1-.571-.571.57.57 0 0 1 .571-.571"
                data-name="Rectangle" style="fill:#d0d4d8;opacity:.5;isolation:isolate" />
            <path
                d="M13.714 15.429h9.143a.57.57 0 0 1 .571.571.57.57 0 0 1-.571.571h-9.143a.57.57 0 0 1-.571-.571.57.57 0 0 1 .571-.571"
                data-name="Rectangle" style="fill:#56b3b4" />
            <path
                d="M8 15.429h3.429A.57.57 0 0 1 12 16a.57.57 0 0 1-.571.571H8A.57.57 0 0 1 7.429 16 .57.57 0 0 1 8 15.429"
                data-name="Rectangle" style="fill:#f7ba3e" />
            <path
                d="M4.571 15.429h1.143a.57.57 0 0 1 .572.571.57.57 0 0 1-.571.571H4.571A.57.57 0 0 1 4 16a.57.57 0 0 1 .571-.571"
                data-name="Rectangle" style="fill:#ea5e5e" />
            <path
                d="M14.857 8.571h4.571a.57.57 0 0 1 .572.572.57.57 0 0 1-.571.571h-4.572a.57.57 0 0 1-.571-.571.57.57 0 0 1 .571-.572"
                data-name="Rectangle" style="fill:#bf85bf" />
            <path
                d="M4.571 8.571h8a.57.57 0 0 1 .571.571.57.57 0 0 1-.571.571h-8A.57.57 0 0 1 4 9.143a.57.57 0 0 1 .571-.572"
                data-name="Rectangle" style="fill:#56b3b4" />
            <path d="M8 20h10.286a.57.57 0 0 1 .571.571.57.57 0 0 1-.571.571H8a.57.57 0 0 1-.571-.571A.57.57 0 0 1 8 20"
                data-name="Rectangle" style="fill:#f7ba3e" />
            <path
                d="M4.571 20h1.143a.57.57 0 0 1 .571.571.57.57 0 0 1-.571.571H4.571A.57.57 0 0 1 4 20.571.57.57 0 0 1 4.571 20"
                data-name="Rectangle" style="fill:#bf85bf" />
            <path
                d="M18.286 10.857H24a.57.57 0 0 1 .571.571A.57.57 0 0 1 24 12h-5.714a.57.57 0 0 1-.571-.571.57.57 0 0 1 .571-.572"
                data-name="Rectangle" style="fill:#ea5e5e" />
            <path
                d="M18.286 13.143H24a.57.57 0 0 1 .571.571.57.57 0 0 1-.571.571h-5.714a.57.57 0 0 1-.571-.571.57.57 0 0 1 .571-.571"
                data-name="Rectangle" style="fill:#f7ba3e" />
            <path
                d="M4.571 4h13.715a.57.57 0 0 1 .571.571.57.57 0 0 1-.571.571H4.571A.57.57 0 0 1 4 4.571.57.57 0 0 1 4.571 4"
                data-name="Rectangle" style="fill:#56b3b4" />
            <path
                d="M20.571 4h6.857a.57.57 0 0 1 .572.571.57.57 0 0 1-.571.571h-6.858A.57.57 0 0 1 20 4.571.57.57 0 0 1 20.571 4m0 16h2.286a.57.57 0 0 1 .571.571.57.57 0 0 1-.571.571h-2.286a.57.57 0 0 1-.571-.571.57.57 0 0 1 .571-.571m4.572 0h2.286a.57.57 0 0 1 .571.571.57.57 0 0 1-.571.571h-2.286a.57.57 0 0 1-.571-.571.57.57 0 0 1 .571-.571M24 17.714h3.429a.57.57 0 0 1 .571.571.57.57 0 0 1-.571.571H24a.57.57 0 0 1-.571-.571.57.57 0 0 1 .571-.571m0-11.428h3.429a.57.57 0 0 1 .571.571.57.57 0 0 1-.571.571H24a.57.57 0 0 1-.571-.571.57.57 0 0 1 .571-.571m1.143 9.143h2.286A.57.57 0 0 1 28 16a.57.57 0 0 1-.571.571h-2.286a.57.57 0 0 1-.572-.571.57.57 0 0 1 .572-.571m0-6.858h2.286a.57.57 0 0 1 .571.572.57.57 0 0 1-.571.571h-2.286a.57.57 0 0 1-.571-.571.57.57 0 0 1 .571-.572m1.143 2.286h1.143a.57.57 0 0 1 .571.571.57.57 0 0 1-.571.571h-1.143a.57.57 0 0 1-.571-.571.57.57 0 0 1 .571-.571m0 2.286h1.143a.57.57 0 0 1 .571.571.57.57 0 0 1-.571.571h-1.143a.57.57 0 0 1-.571-.571.57.57 0 0 1 .571-.571m-9.143 9.143h10.286a.57.57 0 0 1 .571.571.57.57 0 0 1-.571.571H17.143a.57.57 0 0 1-.571-.571.57.57 0 0 1 .571-.571m-4.572 0h2.286a.57.57 0 0 1 .571.571.57.57 0 0 1-.571.571h-2.286a.57.57 0 0 1-.571-.571.57.57 0 0 1 .571-.571m9.143 4.571h5.714a.57.57 0 0 1 .571.571.57.57 0 0 1-.571.571h-5.714a.57.57 0 0 1-.571-.571.57.57 0 0 1 .571-.571m-9.143 0h6.857a.57.57 0 0 1 .571.571.57.57 0 0 1-.571.571h-6.857a.57.57 0 0 1-.571-.57.57.57 0 0 1 .571-.572m0-16H16a.57.57 0 0 1 .571.571A.57.57 0 0 1 16 12h-3.429a.57.57 0 0 1-.571-.571.57.57 0 0 1 .571-.572m0 2.286H16a.57.57 0 0 1 .571.571.57.57 0 0 1-.571.571h-3.429a.57.57 0 0 1-.571-.571.57.57 0 0 1 .571-.571"
                data-name="Rectangle" style="fill:#d0d4d8;opacity:.5;isolation:isolate" />
        </g>
    </symbol>
    <symbol fill="none" viewBox="0 0 32 32" id="react" xmlns="http://www.w3.org/2000/svg">
        <path fill="#53c1de"
            d="M18.679 15.976c0-1.435-1.2-2.597-2.679-2.597-1.48 0-2.679 1.162-2.679 2.597 0 1.434 1.2 2.597 2.679 2.597 1.48 0 2.679-1.163 2.679-2.597" />
        <path fill="#53c1de" fill-rule="evenodd"
            d="M24.7 11.154c.566-2.23 1.277-6.363-1.23-7.764-2.495-1.395-5.742 1.278-7.456 2.883-1.71-1.589-5.048-4.25-7.552-2.845-2.494 1.4-1.725 5.465-1.147 7.708-2.327.64-6.315 2.02-6.315 4.84 0 2.811 3.984 4.313 6.297 4.953-.58 2.255-1.311 6.262 1.186 7.659 2.514 1.405 5.842-1.194 7.572-2.816 1.726 1.614 4.942 4.23 7.437 2.83 2.504-1.406 1.852-5.484 1.273-7.74 2.242-.641 6.235-2.11 6.235-4.886 0-2.793-4.01-4.184-6.3-4.822m-.284 8.513a29 29 0 0 0-1.519-3.685 29 29 0 0 0 1.46-3.631c1.679.472 5.361 1.55 5.361 3.625 0 2.094-3.533 3.183-5.302 3.691m-1.566 7.859c-1.862 1.045-4.628-1.456-5.902-2.645a29 29 0 0 0 2.514-3.096 30.941 30.941 0 0 0 4.064-.607c.407 1.595 1.194 5.298-.676 6.348m-13.726-.015c-1.863-1.041-1.011-4.616-.584-6.278a31.04 31.04 0 0 0 4.042.568 30.55 30.55 0 0 0 2.576 3.085c-1.083 1.015-4.163 3.671-6.034 2.625M2.28 15.976c0-2.102 3.661-3.173 5.378-3.643a29 29 0 0 0 1.462 3.673 30 30 0 0 0-1.48 3.726c-1.637-.454-5.36-1.653-5.36-3.756M9.104 4.504c1.87-1.05 4.77 1.506 6.012 2.656a30 30 0 0 0-2.556 3.066c-1.41.127-2.761.33-4.003.604-.466-1.81-1.321-5.278.547-6.326m11.275 7.073c.957.117 1.875.273 2.736.464a26.259 26.259 0 0 1-.96 2.504 41 41 0 0 0-1.776-2.968m-4.365-3.529a26.999 26.999 0 0 1 1.766 2.066 39 39 0 0 0-3.546 0 28 28 0 0 1 1.78-2.066m-6.157 6.496a27 27 0 0 1-.954-2.517 30 30 0 0 1 2.72-.452 36 36 0 0 0-1.766 2.97m1.793 5.922a28 28 0 0 1-2.764-.431c.264-.83.59-1.692.972-2.568a36 36 0 0 0 1.792 2.999m4.4 3.525a28 28 0 0 1-1.805-2.094q1.783.069 3.566-.006a27 27 0 0 1-1.761 2.1m6.117-6.569c.4.886.739 1.744 1.007 2.559a28 28 0 0 1-2.798.462 41.028 41.028 0 0 0 1.79-3.02m-3.42 3.172a41.5 41.5 0 0 1-5.463.01 35 35 0 0 1-2.746-4.598 35 35 0 0 1 2.73-4.59 37.39 37.39 0 0 1 5.469 0 39 39 0 0 1 2.739 4.572 39 39 0 0 1-2.729 4.606M22.83 4.467c1.87 1.046 1.038 4.76.63 6.376a32 32 0 0 0-4.012-.615 29 29 0 0 0-2.536-3.069c1.258-1.175 4.066-3.728 5.918-2.692"
            clip-rule="evenodd" />
    </symbol>
    <symbol preserveAspectRatio="xMidYMid" viewBox="0 -58 256 256" id="react-router" xmlns="http://www.w3.org/2000/svg">
        <path
            d="M78.066 92.588c12.818 0 23.209-10.391 23.209-23.21 0-12.817-10.391-23.208-23.21-23.208-12.817 0-23.208 10.39-23.208 23.209s10.391 23.209 23.209 23.209m-54.857 46.417c12.818 0 23.209-10.39 23.209-23.209 0-12.817-10.391-23.208-23.21-23.208C10.392 92.588 0 102.978 0 115.796s10.39 23.21 23.209 23.21m209.582 0c12.818 0 23.209-10.39 23.209-23.209 0-12.817-10.39-23.208-23.209-23.208s-23.209 10.39-23.209 23.208 10.391 23.21 23.21 23.21" />
        <path fill="#d0021b"
            d="M156.565 70.357c-.742-7.754-1.12-14.208-7.06-18.744-7.522-5.744-16.044-2.017-26.54-5.806C112.65 43.312 105 34.155 105 23.24 105 10.405 115.578 0 128.626 0c9.665 0 17.974 5.707 21.634 13.883 5.601 10.64 1.96 21.467 8.998 26.921 8.333 6.458 19.568 1.729 32.104 7.848a23.6 23.6 0 0 1 9.84 8.425A22.86 22.86 0 0 1 205 69.718c0 10.915-7.65 20.073-17.964 22.568-10.497 3.789-19.019.062-26.541 5.806-8.46 6.46-3.931 17.267-10.826 28.682-3.913 7.518-11.867 12.663-21.043 12.663-13.048 0-23.626-10.405-23.626-23.24 0-9.323 5.582-17.364 13.638-21.066 12.536-6.12 23.77-1.39 32.104-7.848 4.807-3.726 5.823-9.473 5.823-16.926" />
    </symbol>
    <symbol viewBox="0 0 32 32" id="sass" xmlns="http://www.w3.org/2000/svg">
        <path
            d="M26.11 17.572a5.8 5.8 0 0 0-2.537.588 5.4 5.4 0 0 1-.568-1.314 3.5 3.5 0 0 1-.051-1.1 10 10 0 0 1 .332-1.192c-.005-.051-.061-.292-.624-.3s-1.048.107-1.1.256a6 6 0 0 0-.235.834 19.7 19.7 0 0 1-1.713 3.294 3.2 3.2 0 0 1-.44-2.066 10 10 0 0 1 .332-1.192c-.005-.051-.061-.292-.624-.3s-1.048.107-1.1.256-.118.5-.235.834-1.483 3.386-1.841 4.173c-.184.4-.343.726-.455.946a.2.2 0 0 1-.02.041l-.153.292v.005c-.077.138-.159.266-.2.266a1.7 1.7 0 0 1 .01-.869c.2-1.059.69-2.705.685-2.762 0-.031.092-.317-.317-.465a.51.51 0 0 0-.578.1c-.036 0-.061.087-.061.087s.445-1.851-.849-1.851a3.86 3.86 0 0 0-2.475 1.683c-.348.189-1.089.593-1.882 1.028-.3.169-.614.338-.905.5-.02-.02-.041-.046-.061-.066C6.87 17.6 3.975 16.416 4.1 14.171c.046-.818.327-2.966 5.559-5.575 4.306-2.122 7.733-1.534 8.326-.23.849 1.862-1.836 5.319-6.285 5.82a3.35 3.35 0 0 1-2.813-.711c-.235-.256-.271-.271-.358-.22-.143.077-.051.307 0 .44a2.63 2.63 0 0 0 1.606 1.263 8.55 8.55 0 0 0 5.217-.517c2.7-1.043 4.8-3.943 4.184-6.372-.619-2.465-4.71-3.278-8.582-1.9a19.5 19.5 0 0 0-6.595 3.783c-2.133 1.995-2.47 3.728-2.332 4.455.5 2.578 4.051 4.255 5.472 5.5l-.194.107c-.711.353-3.421 1.77-4.1 3.268-.767 1.7.123 2.915.711 3.079a4.37 4.37 0 0 0 4.71-1.908 4.72 4.72 0 0 0 .423-4.353.1.1 0 0 0-.02-.031l.557-.327a27 27 0 0 1 1.028-.578 6.7 6.7 0 0 0-.363 1.862 3.89 3.89 0 0 0 .834 2.7.92.92 0 0 0 .675.22c.6 0 .875-.5 1.176-1.094.368-.726.7-1.57.7-1.57s-.414 2.281.711 2.281c.409 0 .823-.532 1.008-.8v.005l.031-.051.066-.107v-.01c.164-.286.532-.936 1.079-2.015.706-1.391 1.386-3.13 1.386-3.13a9 9 0 0 0 .271 1.13 11 11 0 0 0 .583 1.309c-.164.23-.266.358-.266.358l.005.005c-.133.174-.276.363-.435.547a16 16 0 0 0-1.314 1.647.447.447 0 0 0 .123.6 1.1 1.1 0 0 0 .685.113 3.2 3.2 0 0 0 1.028-.235 3.5 3.5 0 0 0 .885-.465 1.98 1.98 0 0 0 .849-1.744 3.5 3.5 0 0 0-.322-1.233q.076-.107.148-.215a23 23 0 0 0 1.534-2.649 9 9 0 0 0 .271 1.13 7.6 7.6 0 0 0 .5 1.125 4.86 4.86 0 0 0-1.497 1.922c-.322.931-.072 1.35.4 1.447a1.4 1.4 0 0 0 .747-.153 3.4 3.4 0 0 0 .946-.486 2.13 2.13 0 0 0 1.043-1.729 3.3 3.3 0 0 0-.235-1.023 5.36 5.36 0 0 1 2.716-.312c2.434.286 2.915 1.805 2.823 2.445a1.62 1.62 0 0 1-.772 1.094c-.169.107-.225.143-.21.22.02.113.1.107.245.087A1.9 1.9 0 0 0 30 20.7c.077-1.5-1.355-3.145-3.887-3.13ZM7.33 23.9c-.808.88-1.933 1.212-2.419.931-.522-.3-.317-1.6.675-2.532a13 13 0 0 1 1.9-1.417c.118-.072.292-.174.5-.3l.056-.031.123-.077A3.49 3.49 0 0 1 7.33 23.9m5.881-4c-.281.685-.869 2.44-1.227 2.342-.307-.082-.5-1.412-.061-2.726a6.2 6.2 0 0 1 .956-1.754c.44-.491.926-.655 1.043-.455a9 9 0 0 1-.711 2.593m4.853 2.322c-.118.061-.23.1-.281.072-.036-.02.051-.1.051-.1s.609-.655.849-.951c.138-.174.3-.378.476-.609v.066c0 .782-.757 1.309-1.094 1.524Zm3.744-.854c-.087-.061-.072-.266.22-.905a3.4 3.4 0 0 1 .834-1.074 1.5 1.5 0 0 1 .082.471 1.55 1.55 0 0 1-1.135 1.509Z"
            style="fill:#cd6799" />
    </symbol>
</svg>